<?xml version="1.0" encoding="UTF-8" standalone="no"?>
<!-- Created with Inkscape (http://www.inkscape.org/) -->

<svg
   version="1.1"
   id="svg9"
   width="400"
   height="400"
   viewBox="0 0 400 400"
   sodipodi:docname="logo.svg"
   inkscape:version="1.2.2 (b0a8486541, 2022-12-01)"
   xmlns:inkscape="http://www.inkscape.org/namespaces/inkscape"
   xmlns:sodipodi="http://sodipodi.sourceforge.net/DTD/sodipodi-0.dtd"
   xmlns="http://www.w3.org/2000/svg"
   xmlns:svg="http://www.w3.org/2000/svg">
  <defs
     id="defs13" />
  <sodipodi:namedview
     id="namedview11"
     pagecolor="#ffffff"
     bordercolor="#666666"
     borderopacity="1.0"
     inkscape:showpageshadow="2"
     inkscape:pageopacity="0.0"
     inkscape:pagecheckerboard="0"
     inkscape:deskcolor="#d1d1d1"
     showgrid="false"
     inkscape:zoom="0.90774833"
     inkscape:cx="-83.172833"
     inkscape:cy="87.028527"
     inkscape:window-width="1850"
     inkscape:window-height="1011"
     inkscape:window-x="0"
     inkscape:window-y="0"
     inkscape:window-maximized="1"
     inkscape:current-layer="g15" />
  <g
     inkscape:groupmode="layer"
     inkscape:label="Image"
     id="g15">
    <g
       id="g177"
       transform="translate(0.72188127,-0.57599628)">
      <path
         style="fill:#e6e6e6;fill-opacity:1;stroke-width:1.33333"
         d="M 85.107808,398.66071 C 62.606253,394.77353 46.113199,386.22004 29.94658,370.05341 16.328173,356.43501 8.9912703,344.08365 3.7333348,325.92455 L 0.66666667,315.33333 V 200 84.666667 L 3.6842831,74.254244 C 13.822464,39.271989 39.271989,13.822464 74.254244,3.6842831 L 84.666667,0.66666667 H 200 315.33333 l 10.41243,3.01761643 c 34.98225,10.1381809 60.43177,35.5877059 70.56996,70.5699609 l 3.01761,10.412423 V 200 315.33333 l -3.01761,10.41243 c -9.97145,34.40695 -35.18741,59.90432 -69.68555,70.46325 l -9.9635,3.04956 L 204,399.49737 C 142.03333,399.62871 88.531847,399.25221 85.107808,398.66071 Z M 190.55025,363.55087 c 0.91714,-1.7137 1.76852,-8.01091 1.89198,-13.9938 0.15104,-7.32071 0.73749,-10.88002 1.79334,-10.88419 0.8629,-0.004 1.82274,-1.05621 2.13299,-2.33955 0.31025,-1.28333 0.51904,0.36667 0.46396,3.66667 -0.0551,3.3 0.0351,10.05 0.20033,15 0.26746,8.01095 0.59354,9 2.96715,9 1.46667,0 2.66667,0.6 2.66667,1.33333 0,0.73334 0.63541,1.33334 1.41202,1.33334 0.77662,0 0.98391,-0.69271 0.46066,-1.53935 -0.65708,-1.06317 -0.3721,-1.16628 0.9213,-0.33333 2.28859,1.47386 29.19247,1.62653 28.29743,0.16057 -0.35105,-0.57499 0.79045,-0.78636 2.53669,-0.46971 5.73091,1.03922 6.51182,-3.66569 6.08795,-36.67964 -0.33856,-26.37037 -0.12627,-30.06602 1.83951,-32.02977 1.22221,-1.22093 2.52428,-1.91783 2.89345,-1.54864 0.36919,0.36917 1.68481,-0.87567 2.92363,-2.76633 1.23881,-1.89067 2.70656,-3.15687 3.26168,-2.8138 0.5551,0.34308 2.13948,-0.6652 3.52081,-2.24064 1.70316,-1.94246 1.8678,-2.54424 0.51153,-1.86968 -1.1,0.5471 -0.8,0.008 0.66667,-1.19824 1.46667,-1.20615 2.51667,-2.75064 2.33333,-3.43222 -0.18333,-0.68157 0.30208,-1.23922 1.0787,-1.23922 0.77661,0 1.08005,-0.53714 0.67432,-1.19363 -0.40574,-0.65648 0.2211,-1.56155 1.39298,-2.01123 1.25346,-0.481 1.80554,-1.66493 1.34095,-2.87564 -0.51504,-1.34217 -0.25247,-1.72596 0.75491,-1.10336 1.03157,0.63755 1.26184,0.21767 0.69324,-1.26409 -0.4689,-1.22193 -0.2071,-2.21872 0.58273,-2.21872 0.78879,0 1.07683,-0.93116 0.64009,-2.06925 -0.51478,-1.34152 -0.25662,-1.73711 0.73406,-1.12484 1.03937,0.64237 1.28746,0.0243 0.77573,-1.93259 -0.41379,-1.58235 -0.20831,-2.54076 0.45664,-2.1298 1.10923,0.68555 1.72248,-1.56192 1.56719,-5.74352 -0.034,-0.91667 0.53562,-1.66667 1.26593,-1.66667 0.73031,0 0.98248,-0.9 0.56036,-2 -0.42211,-1.1 -0.12213,-2 0.66667,-2 0.78878,0 1.08878,-0.9 0.66666,-2 -0.4221,-1.1 -0.12213,-2 0.66667,-2 0.78879,0 1.08879,-0.9 0.66667,-2 -0.42211,-1.1 -0.12214,-2 0.66666,-2 0.78879,0 1.07683,-0.93116 0.6401,-2.06925 -0.45532,-1.18656 -0.2318,-1.72176 0.52401,-1.25464 1.20255,0.7432 1.44331,0.0917 1.8514,-5.00944 0.0733,-0.91667 0.91784,-2.49403 1.87668,-3.50525 0.95884,-1.01123 1.41572,-2.69239 1.01527,-3.73592 -0.40331,-1.051 -0.14014,-1.53396 0.58998,-1.08272 0.72494,0.44802 1.31807,-0.3854 1.31807,-1.85207 0,-1.46667 0.64091,-3.06276 1.42423,-3.54688 0.78333,-0.48413 1.10216,-1.71953 0.70852,-2.74536 -0.39366,-1.02583 -0.0992,-1.86513 0.65445,-1.86513 0.7536,0 0.99936,-0.6 0.54613,-1.33334 C 286.88011,212.6 287.18513,212 288.01116,212 c 0.89511,0 1.15993,-1.07735 0.65551,-2.66667 -0.52266,-1.64674 -0.2396,-2.66666 0.74008,-2.66666 1.17598,0 1.20222,-0.46295 0.10146,-1.78935 -0.81676,-0.98413 -1.10473,-2.16964 -0.63992,-2.63444 2.54827,-2.54827 -9.91366,-9.90269 -13.85744,-8.178 -1.28926,0.56383 -2.79413,0.92989 -3.34413,0.81347 -0.55,-0.1164 -1,0.42373 -1,1.20034 0,0.77662 -0.6,1.0412 -1.33333,0.58798 -0.73334,-0.45323 -1.33334,-0.0887 -1.33334,0.8102 0,0.89884 -0.4013,1.23293 -0.8918,0.74244 -1.20256,-1.20255 -5.90294,3.16144 -4.99225,4.63497 0.39585,0.64051 -0.21484,1.52319 -1.35711,1.96152 -1.14228,0.43832 -1.78374,1.27121 -1.4255,1.85087 0.35824,0.57965 -0.28323,1.41254 -1.42551,1.85086 -1.14227,0.43834 -1.7034,1.4012 -1.24699,2.13972 0.45643,0.73851 0.28559,1.34275 -0.37965,1.34275 -0.66524,0 -2.29333,2.40345 -3.61797,5.341 -3.63759,8.06672 -5.7072,9.22028 -7.46998,4.1636 -0.79981,-2.2942 -1.97664,-4.17127 -2.61521,-4.17127 -0.63857,0 -0.81569,-0.9 -0.39359,-2 0.42212,-1.1 0.25328,-2.0041 -0.37517,-2.00913 -0.62847,-0.005 -1.35047,-9.00503 -1.60447,-20 -0.3349,-14.49715 -0.0385,-19.99087 1.07868,-19.99087 0.84728,0 1.1697,-0.6 0.71647,-1.33333 -0.45323,-0.73333 -0.15323,-1.33333 0.66667,-1.33333 0.81989,0 1.11989,-0.6 0.66666,-1.33334 C 242.88011,168.6 243.00833,168 243.61828,168 c 0.60995,0 1.10899,-2.4 1.10899,-5.33333 0,-2.93334 -0.4448,-5.33334 -0.98846,-5.33334 -0.54365,0 -0.60532,-0.99842 -0.13705,-2.21872 0.46828,-1.2203 0.29945,-1.87644 -0.37517,-1.45809 -0.73335,0.45477 -1.06619,-7.84855 -0.82771,-20.64887 0.21939,-11.77523 -0.0259,-22.36909 -0.54501,-23.54191 -0.51914,-1.17282 -0.87246,-2.51097 -0.78514,-2.97365 0.41544,-2.20132 -5.75993,-5.72649 -10.45432,-5.96778 -3.91494,-0.20122 -5.97237,0.48475 -8.10749,2.70313 -2.72215,2.82831 -2.84875,4.08512 -2.60485,25.86122 0.24176,21.58622 0.11906,22.83695 -2.15619,21.98358 -2.19729,-0.82412 -2.23411,-0.68131 -0.41255,1.60073 1.60407,2.00955 1.6252,2.27963 0.1068,1.36424 -1.41978,-0.8559 -1.68033,-0.58648 -1.04184,1.0774 0.46827,1.2203 0.37219,2.21872 -0.21352,2.21872 -0.5857,0 -0.86132,6.15 -0.61248,13.66667 0.4722,14.26297 -1.39885,23.50293 -3.86638,19.09371 -0.6617,-1.18239 -1.9162,-1.74098 -2.7878,-1.24132 -0.8716,0.49966 -1.1633,0.44085 -0.64822,-0.13067 1.07667,-1.19469 -2.04168,-4.72171 -4.1746,-4.72171 -2.32832,0 -1.81265,-22.05634 0.62592,-26.77204 1.12996,-2.18512 1.69456,-4.55532 1.25464,-5.26712 -0.43997,-0.71181 -0.16449,-1.29418 0.61212,-1.29418 2.30234,0 1.60659,-7.80526 -0.9213,-10.33563 -2.05212,-2.05413 -2.30836,-4.98989 -2.1261,-24.35878 0.14043,-14.92278 -0.28944,-22.659759 -1.33333,-23.997707 -2.56128,-3.282788 -11.90511,-7.547602 -12.51665,-5.712988 -0.29124,0.873747 -1.4892,1.220372 -2.66212,0.77028 -1.41666,-0.543617 -1.80894,-0.294662 -1.16851,0.74157 0.58436,0.945505 0.11435,1.559918 -1.19329,1.559918 -1.18656,0 -1.78656,0.6 -1.33334,1.333334 C 183.78656,91.4 183.48656,92 182.66667,92 c -0.8199,0 -1.15156,0.548753 -0.73706,1.219453 0.41452,0.670699 0.17164,1.420699 -0.53973,1.666667 -0.75971,0.262684 -1.36057,9.93745 -1.4562,23.44721 -0.0984,13.90889 -0.67565,23 -1.46027,23 -0.7136,0 -0.92664,0.6 -0.47341,1.33334 C 178.45323,143.4 178.18864,144 177.41203,144 176.63541,144 176,145.5 176,147.33333 c 0,1.83334 0.58117,3.33334 1.29149,3.33334 0.71031,0 0.94612,0.9 0.52402,2 -0.42212,1.1 -0.0679,2 0.7872,2 0.85506,0 1.18385,0.6 0.73062,1.33333 -0.45322,0.73333 -0.33864,1.33303 0.25464,1.33267 1.10374,-7e-4 0.84214,22.25358 -0.32522,27.66733 -0.35579,1.65 -1.53546,3 -2.62148,3 -1.08603,0 -1.9746,1.02 -1.9746,2.26667 0,1.71686 -0.37439,1.89228 -1.5435,0.72317 -1.16909,-1.16909 -1.08824,-2.12317 0.33334,-3.93333 1.71074,-2.17836 1.67034,-2.22791 -0.45651,-0.55992 -2.10485,1.65074 -2.33533,1.4549 -2.35375,-2 -0.0152,-2.8398 -0.3362,-3.33079 -1.24188,-1.89922 -0.7948,1.25631 -0.95921,-0.0244 -0.47069,-3.66666 0.5668,-4.22575 0.29933,-5.60731 -1.09145,-5.63792 -1.25108,-0.0276 -1.0845,-0.48168 0.51914,-1.41528 1.29876,-0.75611 2.01335,-1.93786 1.58799,-2.62612 C 169.52399,168.56312 169.70745,168 170.35705,168 c 0.6496,0 0.94251,-1.95 0.65088,-4.33333 -0.37864,-3.09458 -0.15873,-3.79847 0.76927,-2.46228 0.98303,1.41541 1.24956,1.05096 1.09448,-1.49658 -0.14056,-2.3088 -0.7978,-3.14026 -2.0904,-2.64446 -1.206,0.46257 -1.53589,0.15765 -0.91549,-0.84618 0.53344,-0.86313 0.18186,-1.87078 -0.78128,-2.23921 -1.36851,-0.52349 -1.66443,-5.32885 -1.35418,-21.99058 0.2781,-14.93519 -0.045,-21.32071 -1.07869,-21.32071 -0.81163,0 -1.08149,-0.63781 -0.59972,-1.41735 1.05521,-1.70737 -3.25653,-6.81958 -4.89679,-5.80586 -0.63532,0.39266 -1.15513,0.19589 -1.15513,-0.43725 0,-0.63314 -2.47692,-1.08902 -5.50427,-1.01307 -4.03121,0.10113 -6.17028,0.96057 -7.99285,3.21136 -1.36872,1.6903 -2.15639,3.61077 -1.75037,4.26772 0.40601,0.65695 0.15226,1.19445 -0.56388,1.19445 -0.74871,0 -1.34526,5.38315 -1.40367,12.66666 -0.0607,7.57048 0.43149,12.66667 1.22339,12.66667 0.75998,0 1.32498,4.26425 1.32498,10 0,6.14929 -0.54373,10 -1.41202,10 -0.77662,0 -1.0412,0.6 -0.58798,1.33333 0.45323,0.73334 0.18864,1.33334 -0.58797,1.33334 -0.77661,0 -1.41203,1.77177 -1.41203,3.93726 0,4.2562 2.55167,10.95982 3.86164,10.14512 0.44276,-0.27537 0.62256,7.54344 0.39954,17.37514 C 145.19835,207.58883 145.12083,208 142.22417,208 c -3.32496,0 -7.35408,-3.94361 -6.53614,-6.39743 C 135.98184,200.72116 135.72223,200 135.11111,200 134.5,200 134,198.2 134,196 c 0,-2.2 0.45,-4 1,-4 0.55,0 1,-1.83541 1,-4.07869 0,-2.3481 -0.55925,-3.73304 -1.31807,-3.26408 -0.74106,0.45801 -0.98764,-0.0464 -0.56325,-1.15239 0.44815,-1.16784 -0.37061,-2.56931 -2.01527,-3.44949 -1.52354,-0.81538 -2.77008,-2.36139 -2.77008,-3.43559 0,-1.0742 -0.54382,-1.95309 -1.2085,-1.95309 -0.66468,0 -0.8947,-1.2 -0.51116,-2.66667 0.38354,-1.46667 0.11057,-2.66667 -0.6066,-2.66667 -0.71717,0 -1.00016,-1.58917 -0.62886,-3.53149 0.43403,-2.27048 0.17436,-3.22204 -0.72721,-2.66483 -0.87394,0.54012 -1.13938,-0.13878 -0.70448,-1.80184 0.40576,-1.55162 0.0417,-2.6685 -0.8697,-2.6685 -0.86214,0 -1.2245,-0.55504 -0.80524,-1.23342 1.1984,-1.93905 -2.08251,-7.96601 -4.80726,-8.83081 C 117.10895,148.17227 116,147.36899 116,146.8174 c 0,-1.67841 -11.75928,-0.67703 -14.01288,1.19329 -1.15966,0.96243 -1.8,2.55375 -1.42298,3.53626 0.37703,0.98252 0.10433,1.78638 -0.605987,1.78638 -0.710317,0 -1.291486,0.93542 -1.291486,2.0787 0,1.14328 0.624049,1.693 1.386773,1.22161 0.90807,-0.56121 1.07107,0.40079 0.47221,2.78684 -0.605035,2.41067 -0.43958,3.35037 0.48888,2.77655 0.89072,-0.5505 1.12859,0.18369 0.65109,2.00962 -0.54788,2.09511 -0.29408,2.59378 0.93386,1.83487 1.24211,-0.76765 1.44934,-0.29583 0.78685,1.79151 -0.49673,1.56504 -0.3181,2.83364 0.39899,2.83364 0.7141,0 0.96002,1.29382 0.54649,2.87516 -0.42265,1.61621 -0.20797,2.53901 0.49027,2.10748 0.69728,-0.43095 1.22805,1.81514 1.21003,5.12058 -0.0177,3.23856 -0.48211,5.89019 -1.03211,5.89252 -0.55,0.003 -1,1.23967 -1,2.74962 0,1.50994 0.59313,2.37877 1.31806,1.93074 0.73585,-0.45477 0.99039,0.0393 0.57627,1.11848 -0.40799,1.0632 0.41752,3.04436 1.83446,4.40259 3.55983,3.41232 6.22075,8.6798 5.79392,11.46949 -0.19635,1.28334 0.22454,2.33334 0.93532,2.33334 0.71077,0 0.97851,1.2 0.59497,2.66666 -0.40532,1.54994 -0.0409,2.66667 0.87018,2.66667 0.86214,0 1.19671,0.6 0.74349,1.33333 -0.45323,0.73334 -0.4257,1.97788 0.0612,2.76567 1.25841,2.03615 1.52476,14.46915 0.29367,13.70829 -0.56184,-0.34724 -1.02152,1.20407 -1.02152,3.44735 0,2.24328 0.64043,4.07869 1.42318,4.07869 0.81642,0 1.06234,1.13692 0.57682,2.66667 -0.4655,1.46667 -0.33362,2.66667 0.29308,2.66667 0.62669,0 1.23841,1.31377 1.35936,2.91949 0.12096,1.60572 1.44864,4.58143 2.95041,6.61268 1.50176,2.03125 2.73048,5.25288 2.73048,7.15919 0,1.9063 0.54405,3.12978 1.20899,2.71882 0.66495,-0.41096 0.89497,0.45363 0.51116,1.92131 -0.38381,1.46768 -0.0467,2.66851 0.74917,2.66851 0.79584,0 1.13132,0.82264 0.74549,1.82808 -0.38583,1.00544 0.20443,2.73401 1.31169,3.84126 1.10725,1.10726 1.64176,2.38463 1.18779,2.83859 -0.45397,0.45397 -0.09,0.8254 0.80885,0.8254 0.89883,0 1.2608,0.60424 0.80438,1.34275 -0.45643,0.73852 0.10816,1.7027 1.25464,2.14265 1.14648,0.43995 2.08451,1.44201 2.08451,2.22681 0,0.7848 1.95,3.16171 4.33333,5.282 2.38334,2.12031 3.43334,3.4212 2.33334,2.8909 -1.1,-0.53032 -0.35,0.81142 1.66666,2.98164 L 148,300.81259 v 31.52745 c 0,28.61952 0.21521,31.6528 2.33333,32.88649 1.28334,0.74748 10.48195,1.3773 20.44136,1.39959 17.63287,0.0395 18.15179,-0.0412 19.77556,-3.07525 z m -0.90758,-76.8842 c 0,-2.56667 0.2744,-3.61667 0.60977,-2.33334 0.33536,1.28334 0.33536,3.38334 0,4.66667 -0.33537,1.28333 -0.60977,0.23333 -0.60977,-2.33333 z m 6.56785,-4 c 0,-1.83334 0.30264,-2.58334 0.67252,-1.66667 0.36988,0.91667 0.36988,2.41667 0,3.33333 -0.36988,0.91667 -0.67252,0.16667 -0.67252,-1.66666 z M 164,280.82992 c 0,-0.27687 1.05,-1.32687 2.33333,-2.33333 2.11475,-1.6585 2.16191,-1.61134 0.50342,0.50341 C 165.09492,281.221 164,281.92731 164,280.82992 Z M 196.45708,262 c 0.005,-5.86667 0.23925,-8.10081 0.52092,-4.96476 0.28165,3.13605 0.27769,7.93605 -0.009,10.66667 -0.2865,2.73061 -0.51695,0.16476 -0.51211,-5.70191 z m -39.37375,-1.57748 c 0.9625,-0.38516 2.1125,-0.3378 2.55556,0.1052 0.44306,0.44305 -0.34445,0.75819 -1.75,0.70029 -1.55326,-0.064 -1.8692,-0.37992 -0.80556,-0.80554 z M 189.54385,256 c 0,-1.83333 0.30264,-2.58333 0.67252,-1.66667 0.36988,0.91667 0.36988,2.41667 0,3.33334 -0.36988,0.91666 -0.67252,0.16666 -0.67252,-1.66667 z M 175.33333,241.33333 C 174.88011,240.6 175.10929,240 175.84263,240 c 0.73333,0 1.70414,0.6 2.15737,1.33333 0.45323,0.73334 0.22404,1.33334 -0.50929,1.33334 -0.73334,0 -1.70415,-0.6 -2.15738,-1.33334 z m 11.33334,0.54632 c 0,-0.12093 1.01517,-1.04326 2.25594,-2.04973 1.27607,-1.03509 1.84662,-1.14741 1.31356,-0.25857 -0.5862,0.97742 0.19899,1.79936 2.07739,2.17464 1.87624,0.37485 1.37883,0.556 -1.31356,0.47838 -2.38333,-0.0687 -4.33333,-0.22384 -4.33333,-0.34472 z m -3.34678,-5.9014 c -0.46061,-0.74529 -1.48873,-0.95258 -2.2847,-0.46065 -0.88462,0.54672 -1.06182,0.27084 -0.45583,-0.70967 0.75912,-1.22829 1.43212,-1.2383 2.87268,-0.0428 1.88692,1.566 2.3916,2.56815 1.29332,2.56815 -0.32339,0 -0.96485,-0.60979 -1.42547,-1.35508 z m -11.92961,-1.21945 c -0.42192,-0.68267 -0.25732,-1.55627 0.36575,-1.94135 0.62308,-0.38508 1.13286,0.17346 1.13286,1.2412 0,2.24823 -0.42045,2.44466 -1.49861,0.70015 z m 47.38165,-7.53657 c 0.064,-1.55327 0.37992,-1.8692 0.80555,-0.80556 0.38516,0.96249 0.3378,2.11249 -0.1052,2.55556 -0.44307,0.44305 -0.75819,-0.34446 -0.70029,-1.75 z m -9.4386,-5.74536 c 0,-0.89884 -0.6927,-1.20614 -1.53934,-0.68288 -0.99228,0.61326 -1.17572,0.36302 -0.51618,-0.70415 0.72702,-1.17633 1.4363,-1.2424 2.45046,-0.22824 0.78501,0.78501 1.01729,1.83729 0.51617,2.3384 -0.50111,0.50111 -0.91111,0.17571 -0.91111,-0.72313 z M 155.75,171.08919 c 0.96249,-0.38516 2.11249,-0.3378 2.55556,0.1052 0.44305,0.44305 -0.34445,0.75818 -1.75,0.70029 -1.55327,-0.064 -1.8692,-0.37992 -0.80556,-0.80555 z m 73.33333,0 c 0.9625,-0.38516 2.1125,-0.3378 2.55556,0.1052 0.44306,0.44305 -0.34445,0.75818 -1.75,0.70029 -1.55326,-0.064 -1.8692,-0.37992 -0.80556,-0.80555 z M 115.20104,313.13971 c -0.28548,-0.47315 0.41553,-1.21892 1.55779,-1.65724 1.14227,-0.43834 1.74227,-1.33834 1.33334,-2 -0.40894,-0.66168 0.23891,-1.58004 1.43966,-2.0408 1.20075,-0.46078 1.80251,-1.21844 1.33724,-1.68371 -0.46526,-0.46527 -0.12744,-1.71167 0.75072,-2.76979 1.78489,-2.15065 2.60788,-5.67602 1.25616,-5.38088 -0.48177,0.1052 -4.60389,-3.51341 -9.16025,-8.04134 -4.55637,-4.52794 -7.91457,-8.23262 -7.46266,-8.23262 0.45191,0 -0.50956,-1.15456 -2.13661,-2.56568 -1.62704,-1.41113 -2.88012,-2.76113 -2.78461,-3 0.59618,-1.49114 -1.858861,-4.93264 -3.010877,-4.22065 -0.801015,0.49505 -1.005591,0.22745 -0.478322,-0.62569 0.506722,-0.8199 -0.300574,-2.71259 -1.793988,-4.20602 C 94.555219,265.22188 93.356817,263.55 93.38552,263 c 0.107067,-2.05153 -4.502789,-11 -5.666708,-11 -0.665239,0 -0.838704,-0.6 -0.385479,-1.33333 0.453226,-0.73334 0.207466,-1.33334 -0.54613,-1.33334 -0.753598,0 -1.024815,-0.9 -0.602704,-2 0.422109,-1.1 0.06787,-2 -0.787203,-2 -0.855071,0 -1.183855,-0.6 -0.730629,-1.33333 0.453225,-0.73333 0.207465,-1.33333 -0.546131,-1.33333 -0.753597,0 -1.024815,-0.9 -0.602704,-2 0.422109,-1.1 0.122107,-2 -0.666667,-2 -0.788777,0 -1.088777,-0.9 -0.666666,-2 0.422109,-1.1 0.122106,-2 -0.666667,-2 -0.788777,0 -1.112065,-0.83931 -0.718421,-1.86514 0.393645,-1.02582 0.101013,-2.24504 -0.65028,-2.70936 -0.7513,-0.46433 -1.0513,-1.66433 -0.666667,-2.66666 0.384632,-1.00235 0.11476,-2.18372 -0.599725,-2.62531 -0.714483,-0.44157 -1.003116,-1.93455 -0.641408,-3.31772 0.361708,-1.38317 0.07801,-2.87309 -0.630432,-3.31093 -0.708446,-0.43784 -0.986247,-3.47395 -0.617339,-6.7469 0.952084,-8.44686 -1.118836,-10.09132 -12.70838,-10.09132 h -9.238629 l -0.870522,8.3287 c -0.523996,5.01332 -0.35496,8.50054 0.424642,8.76041 0.71234,0.23745 0.9436,2.18953 0.513913,4.33797 -0.514451,2.57226 -0.238311,3.90626 0.8086,3.90626 0.959804,0 1.268555,1.0123 0.779096,2.55445 -0.445913,1.40496 -0.145443,2.96564 0.667715,3.4682 0.813157,0.50256 1.156394,1.75305 0.762749,2.77888 -0.393644,1.02583 -0.09913,1.86513 0.654459,1.86513 0.753596,0 0.983112,0.62628 0.510033,1.39174 -0.473079,0.76546 -0.135021,2.26546 0.751237,3.33333 0.886259,1.06788 1.164446,1.9416 0.618194,1.9416 -0.546252,0 -0.246252,0.9 0.666666,2 0.912919,1.1 1.212919,2 0.666667,2 -0.546252,0 -0.324924,0.8052 0.491839,1.78935 0.816764,0.98413 1.09023,2.18413 0.607704,2.66666 -0.482527,0.48252 -0.07732,0.87732 0.900457,0.87732 0.977777,0 1.398888,0.3789 0.9358,0.84198 -0.463087,0.46309 -0.135616,2.11309 0.727715,3.66666 0.863329,1.55359 1.44222,3.2747 1.286421,3.8247 -0.155799,0.55 0.352141,1 1.128753,1 0.776612,0 1.041203,0.6 0.587978,1.33333 -0.453226,0.73333 -0.153226,1.33333 0.666666,1.33333 0.819892,0 1.119892,0.6 0.666667,1.33334 C 69.546775,267.4 69.811365,268 70.587977,268 71.364589,268 72,268.85715 72,269.90476 c 0,1.04763 0.921428,2.82619 2.047619,3.95239 1.12619,1.12618 2.014033,2.37533 1.972984,2.77586 -0.19514,1.9041 4.457002,9.0283 9.605922,14.71032 5.054268,5.57758 8.227216,8.76579 20.852795,20.9532 1.73029,1.67024 3.68029,2.8868 4.33333,2.70347 0.65304,-0.18333 1.18735,0.29032 1.18735,1.05257 0,0.79968 0.78677,0.65868 1.86005,-0.33333 1.02303,-0.94559 1.62648,-2.10637 1.34099,-2.57953 z m 165.05151,1.52696 c 0.75001,0 2.56842,-1.5316 4.04089,-3.40355 1.47248,-1.87196 2.98127,-3.09953 3.35284,-2.72795 0.90872,0.90872 13.64987,-11.23213 13.29775,-12.67121 -0.15255,-0.62347 1.52264,-2.69131 3.72264,-4.59521 2.2,-1.90391 3.10493,-2.99318 2.01096,-2.4206 -1.09396,0.57257 0.25604,-1.20403 3,-3.948 4.5424,-4.54239 5.2362,-5.7459 4.86957,-8.44696 -0.0657,-0.48407 0.83429,-1.41388 2,-2.06626 1.16571,-0.65236 2.11947,-2.35629 2.11947,-3.78652 0,-1.43022 0.63541,-2.60041 1.41202,-2.60041 0.77662,0 1.0412,-0.6 0.58798,-1.33333 -0.45323,-0.73334 -0.33864,-1.33802 0.25464,-1.34374 1.49692,-0.0144 4.49708,-6.77329 3.62961,-8.17689 -0.38956,-0.63032 -0.0375,-1.14604 0.78241,-1.14604 0.8199,0 1.1199,-0.6 0.66667,-1.33333 -0.45323,-0.73334 -0.1244,-1.33334 0.73063,-1.33334 0.85506,0 1.23796,-0.82534 0.85086,-1.8341 -0.38709,-1.00876 0.0911,-3.36635 1.06271,-5.23908 0.97159,-1.87274 1.42412,-3.74739 1.00561,-4.1659 -0.4185,-0.4185 0.003,-0.76092 0.93728,-0.76092 0.96174,0 1.36538,-0.86736 0.93074,-2 -0.42211,-1.1 -0.11627,-2 0.67953,-2 0.79584,0 1.13333,-1.1994 0.74999,-2.66533 -0.38335,-1.46595 -0.12894,-3.01644 0.5654,-3.44555 0.69432,-0.42912 0.89756,-1.9297 0.45164,-3.33466 -0.48946,-1.54215 -0.18071,-2.55446 0.77909,-2.55446 1.06115,0 1.3194,-1.35224 0.7766,-4.06628 -0.50439,-2.5219 -0.31448,-3.75802 0.5,-3.25464 1.49155,0.92183 1.69245,-4.2074 0.45745,-11.67908 l -0.82644,-5 h -10.40236 c -9.35212,0 -10.4909,0.27895 -11.27928,2.7629 -0.48229,1.5196 -0.49689,4.27698 -0.0324,6.12754 0.46788,1.8642 0.15788,4.19194 -0.69517,5.21979 -0.85016,1.02439 -1.16304,3.3556 -0.69868,5.20579 0.52843,2.10541 0.27821,3.35065 -0.67328,3.35065 -0.8578,0 -1.21193,1.15603 -0.81689,2.66667 0.38354,1.46666 0.11306,2.66666 -0.60102,2.66666 -0.71409,0 -0.91749,1.2 -0.45198,2.66667 0.5184,1.63332 0.2396,2.66667 -0.71947,2.66667 -0.86121,0 -1.22048,0.9 -0.79836,2 0.42211,1.1 0.20513,2 -0.48217,2 -0.68731,0 -0.90428,0.9 -0.48218,2 0.42212,1.1 0.0679,2 -0.7872,2 -0.85506,0 -1.18385,0.6 -0.73062,1.33333 0.45322,0.73333 0.15322,1.33333 -0.66667,1.33333 -0.81989,0 -1.11989,0.6 -0.66667,1.33334 0.45323,0.73333 0.1244,1.33333 -0.73062,1.33333 -0.85727,0 -1.19848,0.92824 -0.76063,2.06925 0.51879,1.35194 0.25859,1.73832 -0.7506,1.1146 -1.01536,-0.62752 -1.26741,-0.23218 -0.73559,1.15375 0.47928,1.24897 -0.0283,2.42968 -1.24509,2.89663 -1.15401,0.44284 -1.71973,1.65973 -1.29099,2.77701 0.41974,1.09381 0.1974,1.98876 -0.49408,1.98876 -1.77044,0 -5.41948,7.44011 -4.27256,8.71139 0.52076,0.57721 0.21442,0.62874 -0.68074,0.11453 -1.03476,-0.59443 -1.92847,0.26387 -2.45367,2.35641 -0.45435,1.81027 -1.70997,3.63058 -2.79027,4.04512 -1.08029,0.41455 -1.60934,1.32786 -1.17565,2.02958 0.87387,1.41396 -4.51325,4.87148 -6.61951,4.24848 -0.73333,-0.21691 -0.88853,0.0504 -0.3449,0.59405 0.54364,0.54364 0.24364,1.90881 -0.66667,3.03372 -1.37475,1.69885 -1.31633,1.84201 0.34491,0.84521 1.1,-0.66004 -1.41891,2.14247 -5.59759,6.22779 -8.59757,8.40549 -9.33129,11.86759 -3.43845,16.22436 2.03649,1.50564 3.7027,3.25001 3.7027,3.87639 0,1.79976 3.28432,4.89614 3.77778,3.56162 0.24442,-0.66109 1.05806,-1.20198 1.80808,-1.20198 z M 327.44444,192 h 9.88889 v -4.74536 c 0,-2.60995 -0.54292,-4.4098 -1.20649,-3.99969 -0.68877,0.42568 -0.88777,-1.63067 -0.46373,-4.7921 0.54857,-4.08998 0.32716,-5.28088 -0.84695,-4.55524 -1.14615,0.70836 -1.34845,0.0212 -0.72505,-2.46256 C 334.65367,169.2036 334.40804,168 333.38803,168 c -0.96096,0 -1.24015,-1.03209 -0.72136,-2.66667 0.47458,-1.4953 0.2396,-2.66666 -0.53498,-2.66666 -0.75973,0 -1.03597,-0.9 -0.61386,-2 0.42212,-1.1 0.12213,-2 -0.66667,-2 -0.78877,0 -1.08877,-0.9 -0.66667,-2 0.42212,-1.1 0.12214,-2 -0.66666,-2 -0.78878,0 -1.08878,-0.9 -0.66667,-2 0.42212,-1.1 0.12213,-2 -0.66667,-2 -0.78877,0 -1.08877,-0.9 -0.66666,-2 0.42212,-1.1 0.0679,-2 -0.7872,-2 -0.85507,0 -1.18386,-0.6 -0.73063,-1.33334 C 326.45323,144.6 326.15323,144 325.33333,144 c -0.81989,0 -1.20892,-0.45595 -0.86452,-1.01321 0.95703,-1.5485 -2.80697,-9.65346 -4.48313,-9.65346 -0.81201,0 -1.10557,-0.6 -0.65235,-1.33333 0.45323,-0.73333 0.15323,-1.33333 -0.66666,-1.33333 -0.8199,0 -1.123,-0.59497 -0.67358,-1.32216 0.44943,-0.72719 -0.65153,-2.79082 -2.44656,-4.58586 -1.79504,-1.79504 -2.94146,-3.58594 -2.54761,-3.97979 0.39385,-0.39385 -0.26635,-1.09308 -1.46709,-1.55385 -1.20075,-0.46078 -1.86982,-1.34479 -1.48683,-1.96449 0.383,-0.6197 -0.53725,-1.78693 -2.045,-2.59385 -1.50775,-0.80692 -2.42971,-1.9714 -2.04879,-2.58772 0.38091,-0.61633 -0.82141,-2.11258 -2.67181,-3.32501 -1.85041,-1.21244 -3.0686,-2.68299 -2.70711,-3.26791 0.36151,-0.58492 -1.50948,-3.10856 -4.15774,-5.608094 -2.64826,-2.499532 -4.38042,-3.644603 -3.84924,-2.544603 0.66026,1.367311 0.38298,1.292252 -0.87651,-0.237269 -1.25885,-1.528739 -2.45137,-1.851899 -3.76555,-1.020416 -1.05778,0.669268 -1.39194,1.226039 -0.74257,1.237268 0.64937,0.0112 -0.85063,1.880588 -3.33333,4.154134 -2.48271,2.27354 -3.61402,3.67679 -2.51402,3.11833 1.1,-0.55846 0.56194,0.56378 -1.19569,2.49387 -3.59204,3.94447 -3.66216,3.7748 5.5164,13.34787 2.74305,2.86095 4.67624,5.70514 4.29599,6.32041 -0.38027,0.61527 0.51833,1.7661 1.99688,2.55739 1.47854,0.7913 3.0604,2.9214 3.51522,4.73356 0.45483,1.81217 1.39732,3.29485 2.09444,3.29485 0.69711,0 0.89666,0.6 0.44343,1.33334 C 297.54677,139.4 297.75267,140 298.45755,140 c 1.26109,0 4.7723,7.71425 4.39988,9.66667 -0.10494,0.55 0.39041,1 1.10073,1 0.71031,0 0.90835,0.99842 0.44008,2.21872 -0.5686,1.48176 -0.33833,1.90164 0.69324,1.26409 1.00919,-0.62372 1.26939,-0.23733 0.7506,1.1146 -0.43673,1.13809 -0.27985,2.06968 0.3486,2.0702 0.62847,5.1e-4 1.23737,1.63208 1.35315,3.62571 0.11573,1.99364 0.83205,3.83197 1.59176,4.08521 0.7597,0.25323 1.05078,1.32165 0.64685,2.37428 -0.40392,1.05261 -0.0297,1.91385 0.83143,1.91385 0.93613,0 1.23978,1.02727 0.75508,2.55446 -0.44592,1.40496 -0.26682,2.89064 0.398,3.30152 0.66482,0.41088 0.91928,2.26137 0.56546,4.1122 -0.37001,1.93564 -0.0251,3.36516 0.81215,3.36516 0.89769,0 1.15659,1.49429 0.67556,3.8994 -0.72721,3.63609 2.21015,9.55896 3.29099,6.6359 C 317.35556,192.54089 322.00556,192 327.44444,192 Z M 327,193.78363 c -0.91667,-0.36988 -2.41667,-0.36988 -3.33333,0 -0.91667,0.36988 -0.16667,0.67252 1.66666,0.67252 1.83334,0 2.58334,-0.30264 1.66667,-0.67252 z m -249.967971,-8.4503 c -0.370652,-3.85744 -0.09572,-6.66666 0.652464,-6.66666 0.711175,0 1.006303,-1.5 0.655839,-3.33334 C 77.989868,173.5 78.289905,172 79.007071,172 c 0.71717,0 0.990138,-1.2 0.606597,-2.66667 -0.383541,-1.46666 -0.08933,-2.66666 0.653809,-2.66666 0.743138,0 1.005798,-0.9 0.583688,-2 -0.42211,-1.1 -0.122106,-2 0.666667,-2 0.788776,0 1.088776,-0.9 0.666667,-2 -0.422111,-1.1 -0.122107,-2 0.666666,-2 0.788776,0 1.088776,-0.9 0.666667,-2 -0.422111,-1.1 -0.150893,-2 0.602704,-2 0.753596,0 0.999356,-0.6 0.546131,-1.33334 C 84.213441,152.6 84.542227,152 85.397296,152 c 0.855071,0 1.209312,-0.9 0.787203,-2 -0.422111,-1.1 -0.150894,-2 0.602704,-2 0.753596,0 0.999356,-0.6 0.54613,-1.33333 -0.453225,-0.73334 -0.153225,-1.33334 0.666667,-1.33334 0.819892,0 1.158748,-0.53713 0.753015,-1.19362 -0.405735,-0.65648 0.221108,-1.56155 1.392982,-2.01123 1.253456,-0.481 1.805539,-1.66493 1.340948,-2.87564 -0.451928,-1.17771 -0.225937,-1.70956 0.528327,-1.2434 1.158947,0.71627 1.530004,-0.12813 1.229276,-2.79753 -0.04883,-0.43344 0.818193,-1.48344 1.926724,-2.33333 1.108531,-0.84989 2.198484,-2.40743 2.422119,-3.46122 0.223634,-1.05378 1.906609,-3.35219 3.739939,-5.10756 1.83334,-1.75538 2.43334,-2.75186 1.33334,-2.21439 -1.1,0.53746 0.78748,-1.66414 4.1944,-4.89244 7.31685,-6.93323 7.1462,-8.25863 -2.19183,-17.0239 l -6.201299,-5.820922 -3.853226,3.691625 c -2.119276,2.030397 -3.567536,4.153887 -3.218359,4.718867 0.349179,0.56498 -2.039977,3.21908 -5.309236,5.89799 -4.952452,4.05816 -11.258461,12.19127 -11.387097,14.68638 -0.01835,0.35585 -1.255242,1.86888 -2.748656,3.36229 -1.493414,1.49341 -2.389676,3.24217 -1.991692,3.88612 0.397984,0.64395 0.164868,1.37207 -0.518034,1.61803 -0.682902,0.24597 -1.436641,1.33294 -1.674974,2.41547 -0.238334,1.08255 -1.21784,2.80991 -2.17668,3.83859 -0.958842,1.02868 -1.427672,2.69297 -1.041847,3.69841 0.385825,1.00544 0.08492,1.82808 -0.668676,1.82808 -0.753596,0 -0.999356,0.6 -0.546131,1.33333 0.453226,0.73334 0.12444,1.33334 -0.730629,1.33334 -0.855071,0 -1.209312,0.9 -0.787203,2 0.422111,1.1 0.122107,2 -0.666666,2 -0.788776,0 -1.09615,0.88078 -0.683052,1.95729 0.413097,1.07652 0.167504,2.31799 -0.545764,2.7588 -0.713268,0.44083 -0.977276,1.31859 -0.586686,1.95057 0.390591,0.63199 0.05947,1.55123 -0.735816,2.04274 -0.795289,0.49152 -1.13128,1.71376 -0.746648,2.7161 0.384634,1.00234 0.101134,2.19214 -0.630004,2.644 -0.731136,0.45187 -0.964498,1.97108 -0.518585,3.37604 0.477171,1.50343 0.181597,2.55446 -0.718371,2.55446 -1.005369,0 -1.228204,1.37008 -0.650576,4 0.58076,2.64418 0.356139,4 -0.662685,4 -1.420628,0 -1.704683,9.71774 -0.360511,12.33333 0.28265,0.55 5.654836,1 11.938191,1 h 11.424284 z m 30.797901,-79.66666 c -1.6585,-2.11474 -1.61134,-2.1619 0.5034,-0.50341 1.28334,1.00646 2.33334,2.05646 2.33334,2.33333 0,1.09738 -1.09492,0.39107 -2.83674,-1.82992 z M 94.666667,99.333333 C 96.388993,97.5 98.098171,96 98.464837,96 98.831504,96 97.722327,97.5 96,99.333333 c -1.722327,1.833337 -3.431504,3.333337 -3.798171,3.333337 -0.366666,0 0.742511,-1.5 2.464838,-3.333337 z M 214.24415,162.41667 c -0.42563,-1.06364 -0.74158,-0.74771 -0.80555,0.80556 -0.0579,1.40554 0.25723,2.19305 0.70029,1.75 0.44306,-0.44307 0.49042,-1.59307 0.1052,-2.55556 z m 59.06364,-61.93735 c 2.17324,-1.936371 3.69161,-3.940955 3.37414,-4.454628 -0.31748,-0.513675 1.1873,-2.238517 3.34394,-3.832985 l 3.92114,-2.899031 -2.84108,-3.267528 c -1.56258,-1.79714 -3.32056,-2.971187 -3.90661,-2.608993 -0.58604,0.362193 -1.72573,-0.575076 -2.53265,-2.082822 -0.80692,-1.507745 -1.97416,-2.427996 -2.59386,-2.045002 -0.61969,0.382994 -1.48536,-0.23823 -1.92368,-1.380499 -0.43833,-1.142268 -1.4012,-1.703412 -2.13972,-1.246985 -0.7385,0.456425 -1.34274,0.159045 -1.34274,-0.660847 0,-0.819892 -0.6,-1.119892 -1.33334,-0.666667 C 264.6,75.786559 264,75.507117 264,74.712355 c 0,-1.329615 -4.99671,-3.95482 -6.76191,-3.55262 -0.41904,0.09548 -1.84641,-0.910908 -3.17192,-2.236415 -1.3255,-1.325508 -3.18298,-2.113393 -4.12774,-1.750857 -0.94476,0.362537 -2.07246,-0.26521 -2.50599,-1.394991 -0.44284,-1.154021 -1.65973,-1.719733 -2.77701,-1.290991 -1.09382,0.419738 -1.98876,0.117798 -1.98876,-0.67098 0,-0.788776 -0.9,-1.088776 -2,-0.666666 -1.1,0.42211 -2,0.122106 -2,-0.666667 0,-0.788776 -0.9,-1.088776 -2,-0.666667 -1.1,0.422111 -2,0.122107 -2,-0.666666 0,-0.788776 -0.9,-1.088776 -2,-0.666667 -1.1,0.422111 -2,0.145871 -2,-0.613864 0,-0.774571 -1.17136,-1.009563 -2.66667,-0.534971 -1.63457,0.518794 -2.66667,0.2396 -2.66667,-0.72136 0,-1.020008 -1.2036,-1.265642 -3.44505,-0.703074 -2.48933,0.624784 -3.1716,0.422208 -2.45936,-0.73022 0.72641,-1.175362 -0.29636,-1.386827 -3.88828,-0.803936 -3.06293,0.497045 -4.87397,0.26142 -4.87397,-0.63413 0,-1.259484 -10.11024,-0.828986 -11.28724,0.480615 -0.22019,0.244991 -0.0873,5.163273 0.29513,10.929515 l 0.69548,10.484076 5.14831,-0.690534 c 3.066,-0.411237 5.14832,-0.139696 5.14832,0.67136 0,0.749042 1.48184,1.078622 3.29298,0.7324 1.99315,-0.381014 2.96754,-0.102906 2.4685,0.704548 -0.50435,0.816054 0.52869,1.075368 2.6605,0.667846 1.91674,-0.366408 3.68254,-0.07353 3.924,0.650836 0.24146,0.724368 2.36102,1.387164 4.71014,1.472878 2.34912,0.08572 4.2725,0.641258 4.27417,1.234536 0.001,0.593279 0.60304,0.70787 1.33637,0.254644 0.73334,-0.453225 1.33334,-0.12444 1.33334,0.73063 0,0.85507 0.88264,1.215974 1.96141,0.802008 1.07877,-0.413966 2.80735,0.09327 3.84127,1.12719 1.03392,1.03392 2.25129,1.508426 2.70525,1.054458 0.45397,-0.453968 0.8254,-0.08999 0.8254,0.808848 0,0.898834 0.6,1.263425 1.33333,0.8102 0.73334,-0.453226 1.33334,-0.153226 1.33334,0.666666 0,0.819892 0.6,1.119892 1.33333,0.666667 0.73333,-0.453225 1.33333,-0.153225 1.33333,0.666667 0,0.819892 0.6,1.119892 1.33334,0.666666 C 251.4,90.880108 252,91.180108 252,92 c 0,0.819892 0.6,1.119892 1.33333,0.666667 0.73334,-0.453226 1.33334,-0.188635 1.33334,0.587977 0,0.776612 0.68385,1.412023 1.51968,1.412023 0.83581,0 2.3803,1.05 3.4322,2.333333 1.24916,1.524001 1.61177,1.63962 1.04541,0.333333 -0.47692,-1.1 0.37859,-0.583529 1.90112,1.147712 1.52255,1.731245 2.78649,2.631245 2.8088,2.000005 0.0223,-0.631246 0.65211,-0.0977 1.39959,1.18562 1.74828,3.00162 1.8546,2.9823 6.53432,-1.18735 z M 127.13643,98.247537 c 0.44044,0.440443 1.17779,-0.181626 1.63856,-1.382374 0.46078,-1.20075 1.37914,-1.848598 2.04081,-1.439662 0.66167,0.408935 1.56167,-0.191065 2,-1.333333 0.43833,-1.142269 1.33409,-1.744888 1.99057,-1.339153 0.6565,0.405733 1.19363,0.10228 1.19363,-0.674326 0,-0.776612 0.45,-1.34097 1,-1.254128 2.79552,0.441398 4.38887,-0.322673 3.53935,-1.697238 -0.60362,-0.976656 -0.36418,-1.176442 0.655,-0.546552 C 143.1064,89.762484 152,85.823381 152,83.794792 c 0,-0.777385 0.9,-1.068067 2,-0.645957 1.1,0.42211 2,0.242474 2,-0.399188 0,-0.641664 1.29383,-0.828319 2.87516,-0.41479 1.76195,0.460759 2.55193,0.22888 2.04035,-0.598884 -0.51714,-0.836753 0.49368,-1.096798 2.65634,-0.68338 2.13627,0.408374 3.17118,0.149647 2.66667,-0.666666 -0.50451,-0.816312 0.5304,-1.075039 2.66667,-0.666667 1.98916,0.380253 3.1593,0.130453 2.71984,-0.580623 -0.4461,-0.721789 1.23365,-1.01393 3.98381,-0.692865 3.045,0.355487 4.4498,0.06113 3.90617,-0.818484 -0.5565,-0.900428 1.05872,-1.117745 4.6888,-0.630851 3.7953,0.509056 5.25691,0.28837 4.64522,-0.70137 -0.4909,-0.794276 -0.28274,-1.821007 0.46256,-2.281626 1.51948,-0.939088 1.77618,-7.574569 0.53344,-13.788317 -0.737,-3.684983 -1.45155,-4.202671 -6.93607,-5.025124 -3.61139,-0.54156 -6.29039,-0.389067 -6.54424,0.372508 -0.2364,0.709184 -2.30039,1.014881 -4.58667,0.679328 -2.84582,-0.41768 -3.86594,-0.139416 -3.2345,0.882291 0.6447,1.043153 -0.36408,1.235101 -3.35126,0.637665 -2.43964,-0.487928 -3.95478,-0.336267 -3.53069,0.353411 0.40861,0.664472 -1.12147,1.278261 -3.40017,1.363977 -2.27871,0.08572 -4.3585,0.802008 -4.62175,1.591763 -0.26324,0.789756 -1.33987,1.105432 -2.39249,0.701502 -1.05262,-0.403928 -1.91386,-0.08905 -1.91386,0.699723 0,0.789836 -0.99678,1.051636 -2.21872,0.582733 -1.48176,-0.5686 -1.90164,-0.338332 -1.26409,0.693242 0.62372,1.009189 0.23733,1.269386 -1.1146,0.7506 -1.14101,-0.437847 -2.06925,-0.09664 -2.06925,0.760628 0,0.85507 -0.54586,1.217317 -1.21302,0.804993 -1.85769,-1.148124 -5.55254,0.686937 -4.57332,2.27136 0.47576,0.769797 0.31638,1.060548 -0.3542,0.646112 -1.69956,-1.050391 -9.85946,2.554577 -9.85946,4.355821 0,0.812014 -0.57812,1.119094 -1.2847,0.682399 -0.70659,-0.436693 -2.45659,0.377897 -3.88889,1.8102 -1.43231,1.432304 -2.94007,2.268312 -3.35058,1.857796 -0.41052,-0.410517 -1.12471,0.239483 -1.5871,1.444444 -0.46239,1.20496 -1.69534,2.190837 -2.7399,2.190837 -1.04455,0 -2.24323,0.896554 -2.66373,1.992342 -0.42049,1.095788 -1.23367,1.702394 -1.80707,1.348014 -0.5734,-0.35438 -1.80899,0.279179 -2.74575,1.40791 -1.40686,1.695154 -1.28447,2.446585 0.70341,4.318652 1.43925,1.355401 1.98034,1.513669 1.34612,0.393738 -0.7153,-1.263101 -0.55235,-1.558622 0.50059,-0.907869 0.8586,0.530645 1.27466,1.428279 0.92456,1.994741 -0.73343,1.186714 6.94369,8.782839 9.92637,9.821659 1.1,0.38311 2.97551,-0.41772 4.16781,-1.779615 1.1923,-1.361894 2.52817,-2.11581 2.96862,-1.675368 z"
         id="path189" />
      <path
         style="fill:#c2c2c2;fill-opacity:1;stroke-width:1.33333"
         d="m 161,364.34332 c 5.31667,-0.25308 14.01667,-0.25308 19.33333,0 5.31667,0.25309 0.96667,0.46016 -9.66666,0.46016 -10.63334,0 -14.98334,-0.20707 -9.66667,-0.46016 z m 51.38201,0.003 c 4.24344,-0.2654 10.84344,-0.26294 14.66667,0.005 3.82323,0.26841 0.35132,0.48556 -7.71535,0.48255 -8.06666,-0.003 -11.19476,-0.22262 -6.95132,-0.48802 z M 240.56437,334 c 0.001,-15.4 0.19518,-21.51739 0.43131,-13.5942 0.23615,7.92319 0.23525,20.52319 -0.001,28 -0.23723,7.47681 -0.43043,0.9942 -0.42934,-14.4058 z m -50.71722,-0.66667 c 0,-9.16666 0.21302,-12.91666 0.47338,-8.33333 0.26036,4.58333 0.26036,12.08333 0,16.66667 -0.26036,4.58333 -0.47338,0.83333 -0.47338,-8.33334 z m 85.98277,-19.66666 c -1.65849,-2.11475 -1.61133,-2.16191 0.50341,-0.50342 1.28334,1.00647 2.33334,2.05647 2.33334,2.33334 0,1.09738 -1.09492,0.39108 -2.83675,-1.82992 z m -175.28994,-7.33334 -2.53998,-3 3,2.53999 c 2.81926,2.38696 3.60699,3.46001 2.53998,3.46001 -0.25301,0 -1.60301,-1.35 -3,-3 z m -8.710053,-8.66666 c -1.658495,-2.11475 -1.611335,-2.16191 0.503406,-0.50342 1.283334,1.00647 2.333334,2.05647 2.333334,2.33334 0,1.09738 -1.094915,0.39108 -2.83674,-1.82992 z m 97.713923,-4.33334 c 0,-1.83333 0.30264,-2.58333 0.67252,-1.66666 0.36988,0.91666 0.36988,2.41666 0,3.33333 -0.36988,0.91667 -0.67252,0.16667 -0.67252,-1.66667 z M 113.23242,291 110,287.33333 l 3.66667,3.23242 c 3.42705,3.02118 4.27811,4.10092 3.23242,4.10092 -0.23884,0 -1.88884,-1.65 -3.66667,-3.66667 z m 76.51407,-15.66667 c 0.008,-4.4 0.2564,-6.03925 0.55315,-3.64278 0.29675,2.39646 0.29063,5.99646 -0.0136,8 -0.30424,2.00353 -0.54703,0.0428 -0.53955,-4.35722 z m -42.97456,-4.1111 c 0.064,-1.55327 0.37992,-1.8692 0.80555,-0.80556 0.38516,0.96249 0.3378,2.11249 -0.1052,2.55556 -0.44307,0.44305 -0.75819,-0.34446 -0.70029,-1.75 z M 189.59327,262 c 0.0272,-2.2 0.326,-2.93859 0.66405,-1.64129 0.33805,1.29729 0.31583,3.09729 -0.0495,4 C 189.84261,265.26141 189.56603,264.2 189.5932,262 Z m 34.512,-5.44444 c 0.064,-1.55327 0.37992,-1.8692 0.80554,-0.80556 0.38516,0.96249 0.3378,2.11249 -0.1052,2.55556 -0.44306,0.44305 -0.75818,-0.34445 -0.70029,-1.75 z m 10.3114,-12.13304 c 0.96249,-0.38516 2.11249,-0.3378 2.55556,0.1052 0.44305,0.44305 -0.34446,0.75819 -1.75,0.70029 -1.55327,-0.064 -1.8692,-0.37992 -0.80556,-0.80554 z m -53.08334,-27.5926 c 0,-0.27687 1.05,-1.32687 2.33334,-2.33333 2.11474,-1.6585 2.1619,-1.61134 0.50341,0.50341 -1.74183,2.221 -2.83675,2.92731 -2.83675,1.82992 z M 202.49659,215 c -1.6585,-2.11475 -1.61134,-2.16191 0.50341,-0.50341 2.221,1.74182 2.92731,2.83674 1.82992,2.83674 -0.27687,0 -1.32687,-1.05 -2.33333,-2.33333 z M 74.771929,205.88889 c 0.06397,-1.55326 0.379922,-1.8692 0.805556,-0.80556 0.385162,0.9625 0.337792,2.1125 -0.105266,2.55556 -0.443056,0.44306 -0.758188,-0.34445 -0.700294,-1.75 z M 147.10419,198 c 0.005,-5.13333 0.2469,-7.06995 0.53554,-4.3036 0.28863,2.76636 0.28379,6.96636 -0.0107,9.33333 -0.29455,2.36699 -0.53071,0.1036 -0.52479,-5.02973 z m 43.22914,1.11696 c 0.91667,-0.36988 2.41667,-0.36988 3.33334,0 0.91666,0.36988 0.16666,0.67252 -1.66667,0.67252 -1.83333,0 -2.58333,-0.30264 -1.66667,-0.67252 z m -84.89473,-10.5614 c 0.064,-1.55327 0.37992,-1.8692 0.80555,-0.80556 0.38516,0.96249 0.33779,2.11249 -0.10526,2.55556 -0.44306,0.44305 -0.75819,-0.34445 -0.7003,-1.75 z m 116,-25.33333 c 0.064,-1.55327 0.37992,-1.8692 0.80555,-0.80556 0.38516,0.96249 0.3378,2.11249 -0.1052,2.55556 -0.44307,0.44305 -0.75819,-0.34446 -0.7003,-1.75 z m -55.56861,-32.55556 c 0,-11.36667 0.20449,-16.01667 0.45442,-10.33334 0.24994,5.68334 0.24994,14.98334 0,20.66667 -0.24993,5.68333 -0.45442,1.03333 -0.45442,-10.33333 z m -21.45683,-2 c 0.008,-4.4 0.2564,-6.03926 0.55315,-3.64279 0.29674,2.39647 0.29062,5.99647 -0.0136,8 -0.30424,2.00353 -0.54703,0.0428 -0.53955,-4.35721 z m 0.92017,-21.17008 c 0,-0.27687 1.05,-1.32687 2.33334,-2.33333 2.11474,-1.65849 2.1619,-1.61133 0.50341,0.50341 -1.74183,2.22099 -2.83675,2.9273 -2.83675,1.82992 z M 295.89908,101.66667 292.66667,98 l 3.66666,3.23242 C 298.35,103.01025 300,104.66025 300,104.89909 c 0,1.04569 -1.07973,0.19463 -4.10092,-3.23242 z M 198.87719,58.666667 c 0,-1.833334 0.30264,-2.583334 0.67252,-1.666667 0.36988,0.916667 0.36988,2.416667 0,3.333333 C 199.17983,61.25 198.87719,60.5 198.87719,58.666667 Z m -21.79386,-2.244152 c 0.9625,-0.385162 2.1125,-0.337792 2.55556,0.105266 0.44306,0.443056 -0.34445,0.758188 -1.75,0.700294 -1.55326,-0.06397 -1.8692,-0.379922 -0.80556,-0.805556 z"
         id="path187" />
      <path
         style="fill:#9e9e9e;fill-opacity:1;stroke-width:1.33333"
         d="m 189.74649,356.66667 c 0.008,-4.4 0.2564,-6.03926 0.55315,-3.64279 0.29675,2.39647 0.29063,5.99647 -0.0136,8 -0.30424,2.00353 -0.54703,0.0428 -0.53955,-4.35721 z m 9.02544,5.22222 c 0.064,-1.55326 0.37992,-1.8692 0.80555,-0.80556 0.38516,0.9625 0.3378,2.11251 -0.1052,2.55556 -0.44307,0.44306 -0.75819,-0.34445 -0.70029,-1.75 z m 41.488,-58.55556 c 0.0272,-2.2 0.326,-2.93858 0.66406,-1.64129 0.33805,1.29729 0.31582,3.09729 -0.0495,4 -0.36524,0.90271 -0.64183,-0.15871 -0.61465,-2.35871 z m 49.0734,2.91612 c 0,-0.22946 1.95,-2.17946 4.33334,-4.33333 L 298,298 l -3.91612,4.33333 c -3.65037,4.03928 -4.75055,4.9462 -4.75055,3.91612 z M 95.829927,301.66667 c -1.658495,-2.11475 -1.611335,-2.16191 0.503406,-0.50342 1.283334,1.00647 2.333334,2.05647 2.333334,2.33334 0,1.09738 -1.094915,0.39108 -2.83674,-1.82992 z M 174.49659,243 c -1.6585,-2.11475 -1.61134,-2.16191 0.50341,-0.50341 1.28333,1.00646 2.33333,2.05646 2.33333,2.33333 0,1.09739 -1.09492,0.39108 -2.83674,-1.82992 z m 17.17008,-31.88304 c 0.91666,-0.36988 2.41666,-0.36988 3.33333,0 0.91667,0.36988 0.16667,0.67252 -1.66667,0.67252 -1.83333,0 -2.58333,-0.30264 -1.66666,-0.67252 z m 47.10526,-2.5614 c 0.064,-1.55327 0.37992,-1.8692 0.80555,-0.80556 0.38516,0.96249 0.3378,2.11249 -0.1052,2.55556 -0.44307,0.44305 -0.75819,-0.34445 -0.70029,-1.75 z M 60.333333,203.02871 c 2.75,-0.28766 7.25,-0.28766 10,0 2.75,0.28766 0.5,0.52301 -5,0.52301 -5.5,0 -7.75,-0.23535 -5,-0.52301 z M 74.877193,188 c 0,-1.83333 0.302631,-2.58333 0.672515,-1.66667 0.369883,0.91667 0.369883,2.41667 0,3.33334 -0.369884,0.91666 -0.672515,0.16666 -0.672515,-1.66667 z m 71.894737,-0.77777 c 0.064,-1.55327 0.37992,-1.8692 0.80555,-0.80556 0.38516,0.96249 0.3378,2.11249 -0.1052,2.55556 -0.44307,0.44305 -0.75819,-0.34446 -0.70029,-1.75 z m 30.66667,-40 c 0.064,-1.55327 0.37992,-1.8692 0.80555,-0.80556 0.38516,0.96249 0.3378,2.11249 -0.1052,2.55556 -0.44307,0.44305 -0.75819,-0.34446 -0.7003,-1.75 z m 28.10525,-0.55556 c 0,-1.83334 0.30264,-2.58334 0.67252,-1.66667 0.36988,0.91667 0.36988,2.41667 0,3.33333 -0.36988,0.91667 -0.67252,0.16667 -0.67252,-1.66666 z m 34.9742,-22 c 0.003,-9.53334 0.21471,-13.25838 0.47195,-8.27789 0.25724,4.9805 0.25532,12.7805 -0.004,17.33334 -0.25957,4.55283 -0.47004,0.47788 -0.46771,-9.05545 z M 144.36315,116 c 0,-3.3 0.26002,-4.65 0.57782,-3 0.31782,1.65 0.31782,4.35 0,6 -0.3178,1.65 -0.57782,0.3 -0.57782,-3 z M 114.49659,96.333333 C 112.8381,94.218592 112.88526,94.171432 115,95.829927 c 1.28333,1.006458 2.33333,2.056458 2.33333,2.333333 0,1.097379 -1.09491,0.391071 -2.83674,-1.829927 z"
         id="path185" />
      <path
         style="fill:#7a7a7a;fill-opacity:1;stroke-width:1.33333"
         d="m 199.15995,346.66667 c 0,-7.7 0.22037,-10.85 0.4897,-7 0.26934,3.85 0.26934,10.15 0,14 -0.26933,3.85 -0.4897,0.7 -0.4897,-7 z m 73.50672,-52 c 2.86432,-2.93334 5.50786,-5.33334 5.87453,-5.33334 0.36667,0 -1.67688,2.4 -4.5412,5.33334 C 271.13568,297.6 268.49213,300 268.12547,300 c -0.36667,0 1.67688,-2.4 4.5412,-5.33333 z m -73.45164,-21.33334 c 0,-12.83333 0.19997,-18.08333 0.4444,-11.66666 0.24441,6.41666 0.24441,16.91666 0,23.33333 -0.24443,6.41667 -0.4444,1.16667 -0.4444,-11.66667 z m -76.4431,-38.1111 c 0.064,-1.55327 0.37992,-1.8692 0.80556,-0.80556 0.38516,0.96249 0.33779,2.11249 -0.10527,2.55556 -0.44306,0.44305 -0.75819,-0.34446 -0.70029,-1.75 z m 123.89474,-7.74624 c 0,-0.28822 0.93116,-0.88134 2.06925,-1.31807 1.18656,-0.45532 1.72176,-0.2318 1.25464,0.52401 -0.78301,1.26695 -3.32389,1.87394 -3.32389,0.79406 z M 238.976,202.66667 c 0,-2.56667 0.2744,-3.61667 0.60977,-2.33334 0.33536,1.28334 0.33536,3.38334 0,4.66667 -0.33537,1.28333 -0.60977,0.23333 -0.60977,-2.33333 z m 82.05924,0.35533 c 3.13605,-0.28165 7.93605,-0.27769 10.66667,0.009 2.73061,0.2865 0.16476,0.51695 -5.70191,0.51211 -5.86667,-0.005 -8.10081,-0.23925 -4.96476,-0.52092 z m -6.26331,-14.46644 c 0.064,-1.55327 0.37992,-1.8692 0.80555,-0.80556 0.38516,0.96249 0.3378,2.11249 -0.1052,2.55556 -0.44307,0.44305 -0.75819,-0.34445 -0.70029,-1.75 z m -260.000001,-4 c 0.06397,-1.55327 0.379922,-1.8692 0.805556,-0.80556 0.385162,0.96249 0.337792,2.11249 -0.105266,2.55556 -0.443056,0.44305 -0.758188,-0.34445 -0.700294,-1.75 z m 92.000001,-1.33333 c 0.064,-1.55327 0.37992,-1.8692 0.80555,-0.80556 0.38516,0.96249 0.3378,2.11249 -0.1052,2.55556 -0.44307,0.44305 -0.75819,-0.34446 -0.70029,-1.75 z m 93.60942,-35.8889 c 0.0107,-3.66666 0.26896,-5.00841 0.57542,-2.98166 0.30648,2.02674 0.29828,5.02674 -0.0181,6.66666 -0.31648,1.63992 -0.56723,-0.0184 -0.55723,-3.685 z m -58.50523,-30 c 0,-12.1 0.20213,-17.05 0.4492,-11 0.24705,6.05 0.24705,15.95 0,22 -0.24707,6.05 -0.4492,1.1 -0.4492,-11 z M 201.79921,124 c 0,-6.23333 0.22968,-8.78333 0.5104,-5.66667 0.28071,3.11667 0.28071,8.21667 0,11.33334 -0.28072,3.11666 -0.5104,0.56666 -0.5104,-5.66667 z m -94.46588,-9.33333 C 108.66065,113.2 110.04663,112 110.4133,112 c 0.36667,0 -0.41932,1.2 -1.74663,2.66667 -1.32732,1.46666 -2.7133,2.66666 -3.07997,2.66666 -0.36667,0 0.41932,-1.2 1.74663,-2.66666 z"
         id="path183" />
      <path
         style="fill:#575757;fill-opacity:1;stroke-width:1.33333"
         d="m 148.51381,333.33333 c 0,-9.16666 0.21303,-12.91666 0.47339,-8.33333 0.26036,4.58333 0.26036,12.08333 0,16.66667 -0.26036,4.58333 -0.47339,0.83333 -0.47339,-8.33334 z m 50.33443,-7.58797 c -0.0999,-4.54005 0.26843,-8.53279 0.81843,-8.87273 0.55,-0.33996 0.82461,2.17464 0.61024,5.58797 -0.66447,10.58039 -1.23912,11.90161 -1.42867,3.28476 z m 69.12501,-22.44425 c -0.92762,-1.11772 -1.42837,-2.29043 -1.11278,-2.60603 0.3156,-0.31559 1.30618,0.59891 2.2013,2.03223 1.93575,3.09962 1.29018,3.43994 -1.08852,0.5738 z m 10.69342,-14.47119 c 0,-0.27687 1.05,-1.32687 2.33333,-2.33333 2.11475,-1.6585 2.16191,-1.61134 0.50341,0.50341 -1.74182,2.221 -2.83674,2.92731 -2.83674,1.82992 z m -144.25,-41.74073 c 0.96249,-0.38516 2.11249,-0.3378 2.55556,0.1052 0.44305,0.44305 -0.34446,0.75818 -1.75,0.70029 -1.55327,-0.064 -1.8692,-0.37992 -0.80556,-0.80555 z m 48.07992,-13.42252 c -1.6585,-2.11475 -1.61134,-2.16191 0.50341,-0.50342 1.28333,1.00647 2.33333,2.05647 2.33333,2.33334 0,1.09738 -1.09492,0.39108 -2.83674,-1.82992 z m -3.72466,-9.11111 c 0.064,-1.55327 0.37992,-1.8692 0.80555,-0.80556 0.38516,0.96249 0.3378,2.11249 -0.1052,2.55556 -0.44307,0.44305 -0.75819,-0.34445 -0.70029,-1.75 z m -45.6886,-0.13307 c 0.9625,-0.38516 2.1125,-0.3378 2.55556,0.1052 0.44306,0.44306 -0.34445,0.75819 -1.75,0.7003 -1.55326,-0.064 -1.8692,-0.37992 -0.80556,-0.80555 z M 54.976004,208 c 0,-2.56667 0.274393,-3.61667 0.609764,-2.33333 0.335369,1.28333 0.335369,3.38333 0,4.66666 -0.335371,1.28334 -0.609764,0.23334 -0.609764,-2.33333 z M 172,208.82992 c 0,-0.27687 1.05,-1.32687 2.33333,-2.33333 2.11475,-1.6585 2.16191,-1.61134 0.50342,0.50341 C 173.09492,209.221 172,209.92731 172,208.82992 Z M 211.82992,207 c -1.65849,-2.11475 -1.61133,-2.16191 0.50341,-0.50341 1.28334,1.00646 2.33334,2.05646 2.33334,2.33333 0,1.09739 -1.09492,0.39108 -2.83675,-1.82992 z m 122.94201,0.22223 c 0.064,-1.55327 0.37992,-1.8692 0.80555,-0.80556 0.38516,0.96249 0.3378,2.11249 -0.1052,2.55556 -0.44307,0.44305 -0.75819,-0.34446 -0.70029,-1.75 z m -95.65698,-17.8889 c 0,-5.5 0.23534,-7.75 0.52301,-5 0.28765,2.75 0.28765,7.25 0,10 -0.28767,2.75 -0.52301,0.5 -0.52301,-5 z m -183.988181,0.60916 c -0.434246,-1.13162 -0.415416,-2.43162 0.04184,-2.88888 C 55.625877,186.59635 56,187.19481 56,188.38352 c 0,1.73332 1.782196,2.25367 9,2.62775 l 9,0.46644 -9.041847,0.26114 c -7.087409,0.2047 -9.212508,-0.18358 -9.831384,-1.79636 z M 181.73288,180 c 0,-4.03333 0.24996,-5.68333 0.55545,-3.66667 0.30551,2.01667 0.30551,5.31667 0,7.33334 -0.30549,2.01666 -0.55545,0.36666 -0.55545,-3.66667 z m 35.93669,2 c 0.0148,-2.93333 0.28786,-3.97633 0.60678,-2.31779 0.31892,1.65855 0.30681,4.05855 -0.0269,5.33334 -0.33372,1.27478 -0.59466,-0.0823 -0.57986,-3.01555 z M 146.976,177.33333 c 0,-2.56666 0.2744,-3.61666 0.60977,-2.33333 0.33536,1.28333 0.33536,3.38333 0,4.66667 C 147.2504,180.95 146.976,179.9 146.976,177.33333 Z M 279.20665,113 l -2.53998,-3 3,2.53998 c 2.81925,2.38696 3.60698,3.46002 2.53998,3.46002 -0.25301,0 -1.60301,-1.35 -3,-3 z m -77.4358,-8.33333 c 0.005,-5.133337 0.24691,-7.069954 0.53555,-4.3036 0.28863,2.76636 0.28379,6.96636 -0.0107,9.33334 -0.29464,2.36697 -0.5308,0.10359 -0.52488,-5.02974 z m 76.89582,4.16326 c 0,-0.27688 1.05,-1.32688 2.33333,-2.33334 2.11475,-1.65849 2.16191,-1.61133 0.50341,0.50341 -1.74182,2.221 -2.83674,2.92731 -2.83674,1.82993 z m -172.17008,-3.16326 c -1.65849,-2.11474 -1.61133,-2.1619 0.50341,-0.50341 1.28333,1.00646 2.33333,2.05646 2.33333,2.33333 0,1.09738 -1.09491,0.39107 -2.83674,-1.82992 z M 153,103.11696 c 0.91667,-0.36988 2.41667,-0.36988 3.33333,0 0.91667,0.36988 0.16667,0.67251 -1.66666,0.67251 -1.83334,0 -2.58334,-0.30263 -1.66667,-0.67251 z m 76,-1.33333 c 0.91667,-0.36989 2.41667,-0.36989 3.33333,0 0.91667,0.36988 0.16667,0.67251 -1.66666,0.67251 -1.83334,0 -2.58334,-0.30263 -1.66667,-0.67251 z m -134.333333,-0.9537 c 0,-0.27688 1.05,-1.326878 2.333333,-2.333337 2.114741,-1.658494 2.161901,-1.611334 0.503407,0.503407 -1.741826,2.221 -2.83674,2.92731 -2.83674,1.82993 z M 188.44828,65.333333 c 0,-5.5 0.23535,-7.75 0.52301,-5 0.28766,2.75 0.28766,7.25 0,10 -0.28766,2.75 -0.52301,0.5 -0.52301,-5 z"
         id="path181" />
      <path
         style="fill:#333333;fill-opacity:1;stroke-width:1.33333"
         d="m 149.85917,362.43881 c -0.53066,-0.85865 -1.06429,-15.52482 -1.18582,-32.59149 l -0.22098,-31.03031 -6.21262,-7.27194 c -7.51863,-8.80066 -12.48416,-18.33471 -13.69451,-26.2941 -0.49492,-3.2547 -1.69716,-6.83956 -2.67163,-7.96636 -0.97446,-1.12678 -3.05642,-4.9529 -4.62656,-8.50248 -2.35847,-5.33169 -2.70149,-7.88549 -1.97294,-14.68857 1.21648,-11.35933 -3.39969,-30.20657 -8.97706,-36.65221 -3.67013,-4.24148 -3.88402,-5.07382 -3.07428,-11.96344 0.70044,-5.95968 0.1732,-9.67726 -2.70162,-19.04896 -3.38547,-11.03639 -3.45661,-11.82012 -1.363,-15.01539 2.71668,-4.14616 8.01206,-5.6416 12.14492,-3.42976 3.60083,1.92711 6.41904,7.88997 9.42849,19.94909 1.18035,4.72976 3.66635,10.4063 5.52446,12.61452 2.96882,3.52826 3.28141,4.83991 2.57858,10.81991 -1.42491,12.12376 6.80051,23.24841 13.23879,17.90511 1.48956,-1.23623 1.92661,-5.3334 1.92661,-18.0613 0,-14.12712 -0.39701,-17.22404 -2.79877,-21.83192 -2.34976,-4.50809 -2.56367,-6.04402 -1.33334,-9.57336 0.84438,-2.4222 1.46544,-13.88253 1.46544,-27.04147 0,-26.64399 0.69359,-28.76438 9.40894,-28.76438 3.47996,0 6.1594,0.90167 7.9244,2.66667 2.44957,2.44956 2.66666,4.44444 2.66666,24.5034 0,17.34933 0.39339,22.16322 1.9143,23.42546 3.2191,2.67163 3.81329,8.8373 1.3516,14.02494 -1.96371,4.13821 -2.05707,6.05524 -0.72958,14.9807 0.83727,5.62938 1.75243,10.46535 2.03368,10.74662 0.87544,0.87542 11.51756,-6.35787 12.28094,-8.34719 0.70038,-1.82517 -1.31928,-26.82564 -2.98987,-37.01028 -0.57361,-3.49695 -0.17343,-5.99913 1.32527,-8.28643 1.7551,-2.67862 2.147,-7.30098 2.147,-25.32365 0,-20.269129 0.21502,-22.261936 2.66666,-24.713573 3.42844,-3.428436 9.9049,-3.428436 13.33334,0 2.44349,2.4435 2.67062,4.479896 2.71392,24.333333 0.0355,16.2677 0.52206,22.49728 1.95274,25 2.35319,4.11648 2.51986,9.8978 0.3965,13.75432 -2.32243,4.21809 -1.47618,30.21621 1.07589,33.0532 2.58172,2.86993 10.89108,7.27345 11.87265,6.29189 1.83187,-1.83186 2.32604,-20.03601 0.67935,-25.02553 -1.3962,-4.23053 -1.38311,-5.96713 0.0725,-9.61827 1.10808,-2.77928 2.05107,-13.0578 2.50639,-27.31969 0.83532,-26.16192 1.70495,-28.46925 10.73003,-28.46925 8.74324,0 9.33333,1.74621 9.33333,27.61924 0,17.5807 0.45208,23.60942 1.99179,26.56168 2.5438,4.87752 2.50562,6.89149 -0.22404,11.81908 -1.78231,3.21741 -2.2372,8.04337 -2.32512,24.66666 -0.10307,19.49222 0.0801,21.04552 3.22404,27.33334 1.83333,3.66666 4.18428,6.66666 5.22432,6.66666 1.04005,0 4.79744,-5.4 8.34976,-12 7.3109,-13.58321 11.03098,-17.49241 17.86654,-18.77476 5.87391,-1.10196 10.76271,0.96571 12.78676,5.40802 1.3196,2.89621 0.49611,5.95005 -6.2074,23.01964 -4.25086,10.82424 -9.65484,25.38044 -12.00882,32.3471 -5.7048,16.88342 -9.0984,23.2233 -15.57284,29.09296 -2.97695,2.69887 -7.14342,6.51088 -9.25882,8.47115 L 240,298.46153 v 31.95992 c 0,27.91327 -0.26704,32.06239 -2.10905,32.76923 -1.15998,0.44513 -10.15998,0.80932 -20,0.80932 H 200 v -22.80752 c 0,-22.38276 0.0621,-22.88131 3.33333,-26.76897 1.84711,-2.19516 3.33334,-5.6537 3.33334,-7.75684 0,-2.10315 -1.48623,-5.56168 -3.33334,-7.75684 C 200.07184,295.03376 200,294.47317 200,272.89737 c 0,-21.70881 0.0465,-22.06514 3,-22.96228 14.98144,-4.55072 21.84165,-24.44518 13.15352,-38.14496 -6.77915,-10.68958 -21.72345,-15.8459 -32.6698,-11.27222 -6.28397,2.62561 -13.77247,10.57798 -15.55105,16.51437 -1.48322,4.95053 -1.75148,5.12072 -12.60319,7.99543 -10.22056,2.70752 -11.46303,2.78042 -15.88649,0.93217 -2.69808,-1.12732 -6.26229,-1.63773 -8.14197,-1.16596 -4.15075,1.04177 -8.63435,6.55488 -8.63435,10.61692 0,3.96753 5.73519,10.73296 10.00757,11.80525 4.31927,1.08407 10.98131,-2.33461 12.94404,-6.64234 1.07768,-2.36526 3.41813,-3.83958 8.27552,-5.21299 13.90068,-3.93037 13.54141,-3.94323 15.40308,0.55123 2.13715,5.15953 9.08617,11.3307 15.28155,13.57098 l 4.7549,1.7194 v 22.39882 c 0,14.25996 -0.4916,22.39881 -1.35293,22.39881 -2.00947,0 -6.63635,8.19845 -6.64208,11.76923 -0.003,1.70641 1.79501,4.90257 3.99501,7.10257 l 4,4 V 341.43589 364 h -19.25464 c -13.27164,0 -19.55446,-0.48511 -20.21952,-1.56119 z m 16.38823,-82.67122 c 4.56763,-4.29107 4.34249,-13.25231 -0.42721,-17.00415 -7.93191,-6.23924 -19.15352,-1.06876 -19.15352,8.8252 0,9.70043 12.4331,14.89379 19.58073,8.17895 z m 77.85516,-15.66503 C 246.76256,261.44257 248,258.87 248,256 c 0,-5.73588 -6.26412,-12 -12,-12 -5.90108,0 -12,6.25611 -12,12.30927 0,10.78805 12.32837,15.56748 20.10256,7.79329 z m -118.1978,-68.86447 c 3.27999,-3.27998 3.17558,-9.094 -0.23175,-12.90476 -2.96392,-3.31485 -9.06652,-2.98333 -11.5974,0.63002 -2.78445,3.97534 -2.61445,6.65868 0.68783,10.85684 3.124,3.97152 7.97087,4.58836 11.14132,1.4179 z m 36.70996,-26.15617 c 3.45037,-3.70353 3.47083,-8.32971 0.052,-11.74859 -3.49464,-3.49464 -8.55733,-3.3881 -11.94805,0.25142 -3.45038,3.70353 -3.47083,8.3297 -0.052,11.74858 3.49464,3.49464 8.55733,3.38811 11.94805,-0.25141 z m 73.97635,-0.0453 c 4.6481,-6.63604 1.03029,-14.36992 -6.72211,-14.36992 -7.66243,0 -11.34151,9.19412 -5.86896,14.66666 3.6236,3.6236 9.9496,3.47455 12.59107,-0.29668 z m -36.50732,-18.58235 c 1.70174,-4.09663 0.1136,-8.20797 -4.02666,-10.42375 -3.86738,-2.06977 -6.34668,-1.65714 -9.33848,1.55419 -3.6973,3.96859 -3.41438,8.28755 0.84278,12.86597 3.452,3.7125 3.6764,3.7644 7.30542,1.68971 2.05922,-1.17723 4.40684,-3.73599 5.21694,-5.68612 z M 99.006341,303.08543 C 74.424039,278.63284 58.529004,246.00651 56.417299,215.66667 L 55.605277,204 h 9.530695 9.530695 v 4.05621 c 0,7.03395 4.058581,24.17175 8.588618,36.26638 6.117434,16.33276 15.605908,31.41424 28.155395,44.75164 l 10.74402,11.41858 -4.52782,6.75359 c -2.4903,3.71448 -5.04043,6.94204 -5.66696,7.17236 -0.62653,0.23032 -6.45564,-4.86968 -12.953579,-11.33333 z m 173.728809,4.83316 -5.03815,-6.60646 8.6148,-9.13214 c 22.17608,-23.50782 35.78883,-51.59419 39.02275,-80.51332 L 316.19188,204 h 9.63753 9.63754 l -1.04904,10.85163 c -3.14958,32.58036 -21.47468,69.60266 -44.80924,90.52833 -11.35355,10.18148 -11.07676,10.13984 -16.87352,2.53863 z M 184.71307,234.52855 C 180.80297,231.09544 180,229.48784 180,225.09264 c 0,-14.662 20.31352,-18.24129 26.0196,-4.58471 2.36852,5.66867 1.10136,10.87276 -3.61347,14.84002 -5.59216,4.70549 -11.724,4.42152 -17.69306,-0.8194 z m -119.905657,-43.59386 -9.192586,-0.39864 0.816229,-10.26802 c 2.193903,-27.59891 20.077663,-64.55334 38.17742,-78.88861 l 4.993432,-3.954871 5.532382,6.156801 c 3.04281,3.38624 5.53238,6.38378 5.53238,6.6612 0,0.27743 -3.22234,4.30288 -7.16076,8.94545 -14.904967,17.56985 -25.949809,42.45983 -28.578375,64.40248 L 74,191.33333 Z m 250.016907,-9.02624 c -3.70072,-22.02428 -12.78733,-42.22606 -26.91047,-59.82862 l -9.31522,-11.61017 3.98364,-5.02976 c 7.39508,-9.33706 7.45334,-9.344067 14.57984,-1.7534 19.80216,21.09194 34.26778,51.96859 36.9101,78.78402 L 335.01123,192 H 325.76561 316.52 Z M 114.22109,94.891133 C 110.79949,91.417297 108,88.191756 108,87.723261 108,86.410257 125.02104,75.468489 134.27556,70.832339 145.82304,65.047501 160.40433,60.356413 172.08368,58.668721 177.53765,57.880609 183.35,56.946307 185,56.592493 c 2.88161,-0.617913 3,-0.283092 3,8.484746 v 9.128044 l -10.64707,1.62988 c -18.68545,2.86042 -39.18465,11.3327 -52.02341,21.501193 l -4.88734,3.870844 z M 262,96.518856 C 247.16411,86.131775 224.89311,77.469592 207.4056,75.284673 L 200,74.359404 v -9.095875 -9.095874 l 5,0.671509 c 13.38701,1.797899 27.2398,5.068239 36.31239,8.572564 10.61836,4.101387 27.94864,13.515988 35.54344,19.308825 l 4.5597,3.477854 -5.49858,6.567464 c -3.02423,3.612104 -5.89272,6.534399 -6.37444,6.493999 -0.48171,-0.0404 -3.87584,-2.173863 -7.54251,-4.741014 z"
         id="path179" />
    </g>
  </g>
</svg>
